<?xml version="1.0" standalone="no"?>
<!DOCTYPE svg PUBLIC "-//W3C//DTD SVG 20010904//EN"
 "http://www.w3.org/TR/2001/REC-SVG-20010904/DTD/svg10.dtd">
<svg version="1.0" xmlns="http://www.w3.org/2000/svg"
 width="512.000000pt" height="512.000000pt" viewBox="0 0 512.000000 512.000000"
 preserveAspectRatio="xMidYMid meet">
<metadata>
Created by potrace 1.11, written by Peter Selinger 2001-2013
</metadata>
<g transform="translate(0.000000,512.000000) scale(0.100000,-0.100000)"
fill="#000000" stroke="none">
<path d="M395 4981 c-145 -41 -251 -143 -301 -291 -17 -53 -18 -135 -18 -2150
l1 -2095 22 -64 c47 -136 153 -238 291 -281 66 -20 4174 -23 4264 -3 156 35
285 165 322 322 20 85 20 4172 0 4248 -44 165 -174 289 -336 322 -39 7 -662
10 -2120 10 -1906 -1 -2070 -2 -2125 -18z m4055 -215 c60 -11 158 -67 204
-116 45 -48 87 -120 101 -175 12 -46 14 -406 2 -398 -6 4 -7 1 -1 -8 12 -19
13 -399 0 -392 -5 4 -6 1 0 -8 13 -21 13 -2799 -1 -2791 -5 3 -5 -1 1 -9 15
-18 11 -208 -6 -269 -25 -93 -83 -172 -164 -225 -107 -70 46 -65 -2071 -62
-1051 1 -1920 5 -1933 9 -96 29 -196 118 -245 217 l-32 66 0 1935 0 1935 32
67 c58 122 177 213 296 224 28 3 52 6 53 7 6 6 3735 -1 3764 -7z"/>
<path d="M1262 3841 c-11 -9 -9 -209 3 -219 9 -7 103 -27 235 -48 19 -3 37 -9
40 -14 3 -5 5 -467 5 -1027 l0 -1017 -90 -17 c-49 -9 -112 -20 -140 -23 -27
-4 -52 -11 -55 -16 -8 -13 -6 -202 2 -215 4 -6 166 -9 460 -8 249 0 456 2 461
2 4 1 7 53 7 116 0 112 -1 115 -22 116 -13 0 -30 2 -38 4 -8 1 -63 11 -122 20
l-108 18 0 438 0 437 618 0 c339 0 624 -2 632 -4 14 -4 16 -37 16 -257 0 -167
-3 -254 -10 -259 -8 -5 -8 -8 0 -8 8 0 11 -51 10 -172 l-1 -173 -65 -11 c-36
-7 -81 -14 -100 -17 -102 -15 -120 -20 -121 -36 -5 -66 -4 -198 2 -206 5 -6
168 -9 461 -8 249 1 456 2 461 2 4 1 7 53 7 116 0 103 -2 115 -17 116 -10 0
-29 2 -43 5 -14 2 -36 6 -50 8 -14 2 -60 10 -102 17 l-78 13 0 1027 0 1026 78
13 c42 7 86 14 97 17 11 2 31 6 45 9 76 14 70 3 70 127 l0 113 -465 0 c-256
-1 -466 -4 -466 -8 -1 -5 -2 -55 -3 -113 -1 -98 0 -106 19 -110 51 -11 133
-26 165 -30 103 -15 105 -17 106 -68 1 -29 -2 -47 -10 -47 -8 0 -8 -2 0 -8 8
-5 11 -126 10 -399 -1 -342 -3 -392 -16 -395 -13 -3 -1201 -2 -1237 1 -10 1
-13 98 -13 449 l0 449 98 17 c53 9 111 19 127 23 17 3 37 6 45 8 12 1 16 24
18 116 l3 115 -461 0 c-253 0 -464 -2 -468 -5z"/>
</g>
</svg>
